<?xml version="1.0" standalone="no"?>
<!DOCTYPE svg PUBLIC "-//W3C//DTD SVG 20010904//EN"
 "http://www.w3.org/TR/2001/REC-SVG-20010904/DTD/svg10.dtd">
<svg version="1.0" xmlns="http://www.w3.org/2000/svg"
 width="512.000000pt" height="512.000000pt" viewBox="0 0 512.000000 512.000000"
 preserveAspectRatio="xMidYMid meet">

<g transform="translate(0.000000,512.000000) scale(0.100000,-0.100000)"
fill="#000000" stroke="none">
<path d="M1515 4871 c-16 -10 -285 -275 -598 -588 l-567 -569 2 -1624 3 -1625
24 -49 c33 -66 91 -122 160 -155 l56 -26 1610 0 1610 0 55 26 c66 32 123 86
158 154 l27 50 5 1000 5 1000 320 767 c176 422 325 768 331 768 6 0 34 -10 62
-22 l50 -23 -234 -560 c-128 -308 -234 -573 -234 -588 0 -33 40 -77 69 -77 43
0 69 22 94 79 139 322 487 1173 487 1192 0 43 -27 65 -135 109 -58 24 -104 49
-101 54 2 6 26 62 51 125 68 165 80 151 -227 279 -134 56 -255 102 -269 102
-14 0 -35 -10 -47 -23 -11 -12 -65 -128 -119 -257 l-98 -235 -5 250 c-5 247
-5 251 -32 300 -35 68 -92 122 -158 154 l-55 26 -1135 3 c-1101 2 -1136 2
-1165 -17z m2291 -160 c23 -10 52 -34 65 -52 l24 -34 3 -433 3 -432 -551
-1323 -551 -1322 15 -310 15 -310 26 -22 c53 -47 64 -40 314 184 l230 207 242
581 c133 319 245 587 250 595 5 8 8 -327 6 -765 l-2 -780 -24 -34 c-13 -18
-42 -42 -65 -52 -39 -18 -101 -19 -1601 -19 l-1561 0 -44 22 c-25 13 -55 38
-67 57 l-23 34 0 1543 0 1544 536 0 536 0 29 29 29 29 0 541 0 541 1063 0
c1014 0 1064 -1 1103 -19z m-2326 -531 l0 -430 -432 0 -433 0 430 430 c236
237 431 430 432 430 2 0 3 -193 3 -430z m3050 244 c74 -31 138 -59 143 -63 10
-10 -313 -781 -327 -781 -6 0 -74 27 -151 60 -90 37 -139 63 -137 72 8 40 318
768 326 768 6 0 71 -25 146 -56z m-390 -935 c79 -33 146 -62 148 -64 4 -4
-987 -2386 -997 -2397 -6 -6 -286 104 -300 118 -5 5 992 2403 999 2404 3 0 70
-27 150 -61z m-967 -2598 c4 -5 -36 -47 -90 -96 l-98 -87 -7 43 c-3 24 -7 85
-7 136 l-1 92 98 -41 c53 -22 101 -43 105 -47z"/>
<path d="M2061 3983 c-34 -29 -37 -74 -8 -109 l25 -29 604 -3 c331 -1 613 0
626 3 61 15 83 92 39 133 l-23 22 -621 0 c-577 0 -622 -1 -642 -17z"/>
<path d="M1062 3297 c-32 -34 -30 -89 5 -116 l26 -21 1119 2 1120 3 19 24 c26
32 24 77 -6 106 l-24 25 -1119 0 -1119 0 -21 -23z"/>
<path d="M1066 2619 c-20 -16 -26 -29 -26 -59 0 -30 6 -43 26 -59 27 -21 30
-21 1060 -21 l1033 0 27 23 c37 33 37 81 0 114 l-27 23 -1033 0 c-1030 0
-1033 0 -1060 -21z"/>
<path d="M1066 1939 c-35 -27 -36 -86 -3 -117 l23 -22 863 0 862 0 24 25 c40
39 32 96 -16 120 -24 13 -151 15 -877 15 -844 0 -849 0 -876 -21z"/>
<path d="M1083 1270 c-47 -19 -58 -92 -20 -128 l23 -22 706 0 c657 0 707 1
727 18 34 28 37 73 8 108 l-25 29 -699 2 c-390 1 -708 -2 -720 -7z"/>
</g>
</svg>
